<?xml version="1.0" encoding="UTF-8" standalone="no"?>
<svg width="78px" height="20px" viewBox="0 0 78 20" version="1.1" xmlns="http://www.w3.org/2000/svg" xmlns:xlink="http://www.w3.org/1999/xlink" xmlns:sketch="http://www.bohemiancoding.com/sketch/ns">
    <!-- Generator: Sketch 3.0.4 (8054) - http://www.bohemiancoding.com/sketch -->
    <title>scribd_logo</title>
    <desc>Created with Sketch.</desc>
    <defs></defs>
    <g id="Page-1" stroke="none" stroke-width="1" fill="none" fill-rule="evenodd" sketch:type="MSPage">
        <g id="white-text-overlay-with-promo" sketch:type="MSArtboardGroup" transform="translate(-59.000000, -71.000000)" fill="#FFFFFF">
            <g id="scribd_logo" sketch:type="MSLayerGroup" transform="translate(59.000000, 71.000000)">
                <path d="M77.804093,17.5048485 C77.804093,18.7345455 76.8079302,19.7318182 75.5813953,19.7318182 C74.3548605,19.7318182 73.3586977,18.7345455 73.3586977,17.5048485 C73.3586977,16.2742424 74.3548605,15.2766667 75.5813953,15.2766667 C76.8079302,15.2766667 77.804093,16.2742424 77.804093,17.5048485" id="Fill-1" sketch:type="MSShapeGroup"></path>
                <path d="M42.1414651,6.33787879 L42.1414651,16.4790909 L40.8221163,16.4790909 L40.8221163,19.7318182 L46.019093,19.7318182 L46.019093,6.33787879 L42.1414651,6.33787879" id="Fill-2" sketch:type="MSShapeGroup"></path>
                <path d="M7.74074419,7.95727273 C5.94734884,7.30393939 4.576,6.70212121 4.576,5.41181818 C4.576,4.21727273 5.55190698,3.47606061 7.12218605,3.47606061 C8.0742093,3.47606061 8.71483721,3.65818182 9.12660465,3.85060606 C9.06432558,4.03212121 9.02502326,4.24818182 9.02502326,4.57060606 C9.02502326,5.64393939 9.84886047,6.78606061 11.375,6.78606061 C12.6970698,6.78606061 13.585907,5.81636364 13.585907,4.37393939 C13.585907,1.95151515 10.7597674,0.0548484848 7.14909302,0.0548484848 C3.36155814,0.0548484848 0.714093023,2.34969697 0.714093023,5.63636364 C0.714093023,9.24121212 3.21916279,10.4242424 6.76181395,11.7039394 C8.71181395,12.3863636 9.9214186,13.0545455 9.9214186,14.2748485 C9.9214186,15.6487879 8.83969767,16.4369697 6.95469767,16.4369697 C5.99481395,16.4369697 5.10597674,16.2272727 4.46534884,15.8575758 C4.57932558,15.5509091 4.62981395,15.2354545 4.62981395,14.8636364 C4.62981395,13.8263636 3.73160465,12.7051515 2.28134884,12.7051515 C0.945674419,12.7051515 0.0151162791,13.7430303 0.0151162791,15.2290909 C0.0151162791,17.7372727 3.17955814,19.8569697 6.92627907,19.8569697 C11.0729767,19.8569697 13.7536977,17.5663636 13.7536977,14.0233333 C13.7536977,10.3918182 11.1473488,9.17272727 7.74074419,7.95727273" id="Fill-3" sketch:type="MSShapeGroup"></path>
                <path d="M18.6008837,12.9857576 C18.6008837,10.4118182 20.2754651,9.47848485 21.4001163,9.47848485 C22.2871395,9.47848485 22.8676047,9.79242424 23.1460465,10.0172727 C22.9673721,10.3190909 22.8552093,10.6918182 22.8552093,11.0215152 C22.8552093,12.2072727 23.8553023,13.2087879 25.038907,13.2087879 C26.3896977,13.2087879 27.3323488,12.2166667 27.3323488,10.7969697 C27.3323488,8.64424242 24.96,6.33787879 21.4270233,6.33787879 C17.3831163,6.33787879 14.8795581,9.75878788 14.8795581,12.9284848 C14.8795581,16.9418182 17.8036512,19.7451515 21.9869302,19.7451515 L26.8150698,19.7451515 L26.8150698,16.4915152 L22.2396744,16.4915152 C20.0967907,16.4915152 18.6008837,15.05 18.6008837,12.9857576" id="Fill-4" sketch:type="MSShapeGroup"></path>
                <path d="M37.7432326,6.33787879 C36.4931163,6.33787879 35.3249302,7.07606061 34.1896977,8.59 L34.1896977,6.56212121 L28.7620465,6.56212121 L28.7620465,9.81545455 L30.5790233,9.81545455 L30.5790233,16.4878788 L28.7620465,16.4878788 L28.7620465,19.7375758 L36.4290233,19.7375758 L36.4290233,16.4878788 L34.3018605,16.4878788 L34.3018605,11.92 C34.763814,11.0766667 35.5435116,10.290303 36.255186,9.93545455 C36.6013488,10.460303 37.2453023,10.9369697 38.1909767,10.9369697 C39.3785116,10.9369697 40.3447442,9.93030303 40.3447442,8.6930303 C40.3447442,7.52121212 39.5414651,6.33787879 37.7432326,6.33787879" id="Fill-5" sketch:type="MSShapeGroup"></path>
                <path d="M54.0878605,6.33787879 L51.779,6.33787879 L51.779,1.22939394 L48.007186,1.22939394 L48.007186,19.7390909 C48.007186,19.7390909 52.3265116,19.7451515 53.8919535,19.7451515 C57.3759535,19.7451515 60.1044419,16.7757576 60.1044419,12.9857576 C60.1044419,9.13424242 57.5733721,6.33787879 54.0878605,6.33787879 L54.0878605,6.33787879 Z M51.779,9.64636364 L53.389186,9.64636364 C55.1290698,9.64636364 56.2990698,11.000303 56.2990698,13.0130303 C56.2990698,15.3763636 54.7916744,16.4536364 53.389186,16.4536364 L51.779,16.4536364 L51.779,9.64636364 L51.779,9.64636364 Z" id="Fill-6" sketch:type="MSShapeGroup"></path>
                <path d="M72.019093,17.5048485 C72.019093,16.3257576 72.5913953,15.2821212 73.4738837,14.6312121 L73.4738837,1.22939394 L67.9011163,1.22939394 L67.9011163,4.46878788 L69.7480233,4.46878788 L69.7480233,6.33787879 L67.6335581,6.33787879 C64.1507674,6.33787879 61.4228837,9.30606061 61.4228837,13.0966667 C61.4228837,16.95 63.9518372,19.7418182 67.4391628,19.7418182 L72.8066512,19.7418182 C72.3147674,19.1281818 72.019093,18.3506061 72.019093,17.5048485 L72.019093,17.5048485 Z M69.7480233,16.4809091 L68.1378372,16.4809091 C66.3967442,16.4809091 65.2267442,15.11 65.2267442,13.07 C65.2267442,10.7175758 66.7368605,9.64636364 68.1378372,9.64636364 L69.7480233,9.64636364 L69.7480233,16.4809091 L69.7480233,16.4809091 Z" id="Fill-7" sketch:type="MSShapeGroup"></path>
                <path d="M42.1414651,1.22939394 L46.019093,1.22939394 L46.019093,4.64363636 L42.1414651,4.64363636 L42.1414651,1.22939394 Z" id="Fill-8" sketch:type="MSShapeGroup"></path>
            </g>
        </g>
    </g>
</svg>